<?xml version="1.0" encoding="utf-8"?>
<!-- Generator: Adobe Illustrator 16.0.0, SVG Export Plug-In . SVG Version: 6.00 Build 0)  -->
<!DOCTYPE svg PUBLIC "-//W3C//DTD SVG 1.1//EN" "http://www.w3.org/Graphics/SVG/1.1/DTD/svg11.dtd">
<svg version="1.1" id="Calque_1" xmlns="http://www.w3.org/2000/svg" xmlns:xlink="http://www.w3.org/1999/xlink" x="0px" y="0px"
	 width="640px" height="480px" viewBox="0 0 640 480" enable-background="new 0 0 640 480" xml:space="preserve">
<g>
	<g>
		<path fill="#1D1D1B" d="M248.19,107.012l14.567,45.542h0.368l3.794-14.569l10.896-32.318h21.791v3.304l-29.749,83.249h-12.609
			l-13.712-41.256h-0.368l-13.711,41.256h-12.12l-30.117-83.249v-3.304h22.159l11.02,32.318l3.794,14.569h0.368l14.324-45.542
			C242.314,107.012,244.761,107.012,248.19,107.012z"/>
		<path fill="#1D1D1B" d="M365.973,125.254c-12.731,0-19.1,0-31.708,0v12.119h29.138c0,6.488,0,12.979,0,19.466h-29.138
			c0,5.019,0,9.915,0,15.059c12.608,0,19.955,0,32.81,0c0,6.365,0,12.977,0,19.465c-20.077,0-34.769,0-54.602,0
			c0-28.647,0-57.295,0-85.696c19.833,0,33.422,0,53.5,0C365.973,112.031,365.973,118.643,365.973,125.254z"/>
		<path fill="#1D1D1B" d="M442.496,146.801c6.977,3.55,10.282,9.915,10.282,17.506c-0.123,14.936-9.182,27.056-26.688,27.056
			h-40.156v-85.696h36.607c14.813,0,26.685,11.507,26.685,26.321C449.227,137.128,446.66,143.372,442.496,146.801z M407.113,125.254
			v14.077h13.832c8.692,0,8.692-14.077-0.12-14.077H407.113z M407.113,157.328v14.57h17.508c8.814,0,8.689-14.57-0.125-14.57
			H407.113z"/>
	</g>
	<g>
		<path fill="#1D1D1B" d="M286.019,337.938v3.885c-6.696,7.458-12.845,13.604-18.443,18.442c-5.6,4.846-11.071,8.57-16.411,11.185
			c-5.342,2.608-10.502,3.913-15.484,3.913c-4.304,0-8.002-0.859-11.089-2.571c-3.09-1.717-5.421-4.214-6.996-7.504
			c-1.575-3.284-2.361-7.182-2.361-11.687c0-3.55,0.568-7.304,1.704-11.27s2.78-7.971,4.932-12.014
			c2.153-4.043,4.792-8.223,7.921-12.526c3.129-4.306,6.805-8.828,11.03-13.571c4.384-4.901,8.708-9.137,12.974-12.705
			c4.264-3.566,8.13-6.366,11.598-8.399c3.467-2.032,6.685-3.544,9.655-4.544c2.968-0.995,5.429-1.493,7.383-1.493
			c1.992,0,3.685,0.477,5.082,1.434c1.394,0.958,2.471,2.354,3.228,4.186c0.756,1.831,1.136,3.947,1.136,6.335
			c0,4.508-1.535,9.518-4.604,15.036c-3.07,5.52-6.896,10.852-11.478,15.994c-4.584,5.139-8.958,9.337-13.124,12.58
			c-4.165,3.251-7.165,4.878-8.997,4.878c-1.236,0-2.382-0.487-3.438-1.467c-1.056-0.976-1.584-2.081-1.584-3.317
			c0-2.271,1.205-5.021,3.617-8.249c2.411-3.229,5.042-6.191,7.893-8.877c2.848-2.695,4.552-4.036,5.111-4.036
			c0.278,0,0.419,0.117,0.419,0.355c0,0.359-0.209,0.979-0.628,1.856c-0.418,0.873-0.628,1.416-0.628,1.614
			c0,0.319,0.12,0.477,0.359,0.477c0.677,0,2.63-1.814,5.858-5.44c3.229-3.624,6.188-7.62,8.878-11.989
			c2.689-4.358,4.035-7.939,4.035-10.729c0-1.157-0.249-2.044-0.747-2.661c-0.499-0.616-1.246-0.926-2.241-0.926
			c-2.791,0-7.025,2.262-12.704,6.784c-5.68,4.526-11.5,10.282-17.457,17.281c-5.959,6.992-10.932,14.217-14.916,21.671
			c-3.986,7.454-5.979,14.01-5.979,19.669c0,3.265,0.487,5.998,1.465,8.188c0.976,2.19,2.41,3.889,4.304,5.084
			c1.893,1.193,4.175,1.791,6.846,1.791c5.778,0,12.335-2.252,19.669-6.754C269.139,353.346,277.21,346.707,286.019,337.938z"/>
		<path fill="#1D1D1B" d="M330.198,338.178v3.767c-3.467,3.547-6.467,6.451-8.997,8.699c-2.532,2.253-4.744,3.954-6.636,5.108
			c-1.894,1.16-3.498,1.735-4.813,1.735c-3.109,0-4.663-1.831-4.663-5.498c0-2.95,0.965-6.366,2.899-10.256
			c1.932-3.884,4.713-8.457,8.34-13.721c-1.793,0.998-3.488,2.144-5.082,3.437c-1.595,1.298-3.01,2.651-4.244,4.066
			c-1.236,1.416-2.272,2.625-3.109,3.618c-2.592,2.91-5.082,5.89-7.474,8.936c-2.391,3.052-4.005,5.038-4.842,5.951
			c-0.837,0.918-1.636,1.376-2.392,1.376c-3.109,0-4.664-3.826-4.664-11.479c0-2.513,0.378-5.278,1.137-8.313
			c0.756-3.026,2.789-7.031,6.097-12.016c6.974-10.441,12.944-18.979,17.906-25.618c4.961-6.633,9.077-11.655,12.344-15.066
			c3.268-3.404,5.461-5.071,6.577-4.99c1.395,0.121,2.52,0.396,3.378,0.836c0.855,0.44,1.285,0.939,1.285,1.497
			c0,0.997-0.688,2.64-2.063,4.929c-1.375,2.292-3.736,5.874-7.084,10.734c-3.628,5.14-6.199,8.755-7.713,10.853
			c-1.515,2.088-3.776,5.059-6.786,8.903c-3.01,3.848-5.76,7.277-8.25,10.282c-2.492,3.013-5.331,6.271-8.519,9.777v7.173
			c5.339-5.937,9.962-10.801,13.87-14.585c3.905-3.786,7.212-6.649,9.924-8.582c2.71-1.93,4.702-2.896,5.979-2.896
			c1.195,0,2.311,0.709,3.349,2.121c1.035,1.416,1.554,2.584,1.554,3.498c0,0.4-0.2,0.896-0.598,1.493
			c-2.869,3.43-5.152,6.271-6.845,8.522c-1.695,2.249-3,4.261-3.916,6.035c-0.918,1.775-1.375,3.297-1.375,4.573
			c0,1.874,0.896,2.81,2.69,2.81C319.378,345.889,323.623,343.32,330.198,338.178z"/>
		<path fill="#1D1D1B" d="M358.775,338.178v4.364c-3.866,4.982-7.472,8.74-10.821,11.269c-3.347,2.531-6.197,3.798-8.548,3.798
			c-3.27,0-5.701-1.714-7.295-5.144c-1.595-3.426-2.391-7.174-2.391-11.238c0-1.557,0.158-3.04,0.478-4.452
			c0.318-1.413,0.697-2.581,1.137-3.498c0.438-0.919,1.256-2.354,2.451-4.306c5.658-8.809,10.841-13.214,15.544-13.214
			c2.43,0,3.646,0.937,3.646,2.811c0,1.276-0.787,3.269-2.361,5.979c-1.576,2.712-2.98,4.646-4.215,5.8
			c-3.468,3.35-5.73,5.679-6.785,6.995c-1.058,1.313-1.585,2.811-1.585,4.482c0,1.435,0.538,2.631,1.615,3.588
			c1.076,0.957,2.469,1.435,4.184,1.435c1.873,0,3.937-0.688,6.188-2.06C352.269,343.407,355.188,341.205,358.775,338.178z
			 M354.711,311.455c-0.997,0-1.943-0.382-2.841-1.139c-0.896-0.756-1.344-1.71-1.344-2.868c0-1.754,0.836-3.705,2.51-5.857
			c1.675-2.153,3.408-3.229,5.202-3.229c1.195,0,2.19,0.37,2.988,1.106c0.798,0.741,1.195,1.804,1.195,3.198
			c0,1.712-0.817,3.608-2.45,5.681C358.336,310.419,356.582,311.455,354.711,311.455z"/>
		<path fill="#1D1D1B" d="M386.814,337.521v4.423c-8.331,11.042-15.105,16.56-20.326,16.56c-2.832,0-5.051-1.543-6.668-4.632
			c-1.613-3.088-2.42-7.144-2.42-12.166c0-4.067,0.957-8.896,2.87-14.498c1.913-5.599,4.474-11.28,7.682-17.039
			c3.208-5.761,6.537-10.781,9.984-15.065c3.447-4.285,6.645-7.28,9.595-8.998c1.196-0.718,2.131-1.075,2.812-1.075
			c0.838,0,1.393,0.37,1.675,1.104c0.274,0.736,0.415,2.004,0.415,3.797c0,5.544-2.251,12.343-6.754,20.419
			c-4.506,8.067-10.782,16.31-18.833,24.72c-0.398,2.069-0.598,3.665-0.598,4.78c0,2.549,0.547,4.625,1.646,6.218
			c1.095,1.593,2.619,2.392,4.572,2.392c0.996,0,2.071-0.391,3.229-1.165c1.155-0.78,2.369-1.744,3.647-2.9
			C380.617,343.236,383.107,340.947,386.814,337.521z M368.938,326.759c2.071-2.032,4.074-4.344,6.01-6.935
			c1.931-2.59,3.756-5.358,5.468-8.312c1.714-2.949,3.059-5.598,4.036-7.949c0.976-2.352,1.465-4.126,1.465-5.323
			c0-0.916-0.318-1.374-0.955-1.374c-0.24,0-0.698,0.22-1.376,0.659c-2.432,1.992-5.163,5.89-8.19,11.686
			C372.366,315.014,370.213,320.862,368.938,326.759z"/>
		<path fill="#1D1D1B" d="M414.854,337.521v4.423c-8.334,11.042-15.107,16.56-20.326,16.56c-2.835,0-5.054-1.543-6.669-4.632
			c-1.613-3.088-2.421-7.144-2.421-12.166c0-4.067,0.958-8.896,2.87-14.498c1.915-5.599,4.476-11.28,7.683-17.039
			c3.207-5.761,6.534-10.781,9.984-15.065c3.446-4.285,6.642-7.28,9.596-8.998c1.196-0.718,2.132-1.075,2.808-1.075
			c0.836,0,1.395,0.37,1.674,1.104c0.28,0.736,0.422,2.004,0.422,3.797c0,5.544-2.254,12.343-6.759,20.419
			c-4.501,8.067-10.782,16.31-18.83,24.72c-0.399,2.069-0.598,3.665-0.598,4.78c0,2.549,0.545,4.625,1.644,6.218
			c1.094,1.593,2.619,2.392,4.574,2.392c0.993,0,2.068-0.391,3.229-1.165c1.153-0.78,2.371-1.744,3.643-2.9
			C408.655,343.236,411.147,340.947,414.854,337.521z M396.976,326.759c2.074-2.032,4.075-4.344,6.01-6.935
			c1.931-2.59,3.757-5.358,5.469-8.312c1.717-2.949,3.06-5.598,4.038-7.949c0.978-2.352,1.462-4.126,1.462-5.323
			c0-0.916-0.315-1.374-0.957-1.374c-0.239,0-0.695,0.22-1.37,0.659c-2.435,1.992-5.164,5.89-8.194,11.686
			C400.405,315.014,398.252,320.862,396.976,326.759z"/>
	</g>
	<g>
		<path fill="#1D1D1B" d="M332.15,223.966h20.702v1.258c-6.751,0.99-7.83,2.881-10.442,7.291c-2.43,3.511-4.589,7.29-7.379,10.981
			c2.52,2.791,11.79,14.31,13.589,18.359l-0.719,0.725c-2.16-0.812-6.66-2.701-7.83-3.873c-0.991-1.264-4.59-7.022-8.281-10.711
			c-7.83,10.082-13.321,13.859-20.25,13.859c-10.801,0-17.012-8.009-17.012-14.939c-0.09-9.181,7.742-13.411,14.761-18.09
			c-4.771-3.602-7.561-6.932-7.561-11.432c0-7.65,6.841-13.5,13.502-13.5c6.479,0,12.419,4.59,12.511,11.339
			c0,4.141-2.791,7.021-4.052,7.832l-7.29,4.68c3.602,2.521,11.61,8.371,17.191,14.491c4.14-5.851,5.94-11.43,5.94-13.231
			c0-2.34-1.98-2.969-7.291-3.781L332.15,223.966z M330.529,246.376c-4.41-5.31-11.521-11.07-19.71-16.291
			c-8.37,4.952-10.8,9.001-10.8,14.851c0,8.282,7.29,12.602,13.321,12.602C320.629,257.537,326.391,252.408,330.529,246.376z
			 M306.408,214.965c0,5.58,3.781,9.09,8.28,11.789c5.401-2.788,7.832-6.66,7.832-11.699c-0.09-4.95-3.33-9.001-8.28-9.001
			C309.918,206.054,306.408,209.384,306.408,214.965z"/>
	</g>
	<g>
		<rect x="193.537" y="221.739" fill="#1D1D1B" width="80.356" height="2.702"/>
	</g>
	<g>
		<rect x="366.389" y="221.739" fill="#1D1D1B" width="80.354" height="2.702"/>
	</g>
</g>
</svg>
